<svg width="40" height="40" viewBox="0 0 40 40" fill="none" xmlns="http://www.w3.org/2000/svg">
<rect width="40" height="40" fill="#F8F8F8"/>
<g clip-path="url(#clip0_1494_597)">
<path d="M30.7953 20.7419C30.7953 20.0281 30.7374 19.3105 30.614 18.6083H20.71V22.6517H26.3815C26.1462 23.9557 25.39 25.1093 24.2827 25.8424V28.4659H27.6663C29.6533 26.6372 30.7953 23.9364 30.7953 20.7419Z" fill="#4285F4"/>
<path d="M20.71 31.0007C23.5419 31.0007 25.9301 30.0709 27.6701 28.4659L24.2865 25.8424C23.3451 26.4828 22.1298 26.8455 20.7138 26.8455C17.9745 26.8455 15.6519 24.9974 14.8185 22.5128H11.3269V25.2173C13.1094 28.763 16.7399 31.0007 20.71 31.0007Z" fill="#34A853"/>
<path d="M14.8147 22.5127C14.3749 21.2087 14.3749 19.7966 14.8147 18.4925V15.788H11.327C9.83771 18.7549 9.83771 22.2504 11.327 25.2173L14.8147 22.5127Z" fill="#FBBC04"/>
<path d="M20.71 14.156C22.2069 14.1328 23.6537 14.6961 24.7379 15.7301L27.7357 12.7323C25.8375 10.9498 23.3181 9.96984 20.71 10.0007C16.7399 10.0007 13.1094 12.2384 11.3269 15.788L14.8147 18.4925C15.6442 16.004 17.9707 14.156 20.71 14.156Z" fill="#EA4335"/>
</g>
<defs>
<clipPath id="clip0_1494_597">
<rect width="21" height="21" fill="white" transform="translate(10 10)"/>
</clipPath>
</defs>
</svg>
