<svg width="131" height="30" viewBox="0 0 131 30" fill="none" xmlns="http://www.w3.org/2000/svg">
<path d="M21.525 17.3C21.5583 17.55 21.5167 17.7083 21.4 17.775C21.2833 17.8417 21.1083 17.8917 20.875 17.925C19.725 18.0417 18.5417 18.1417 17.325 18.225C16.1083 18.3083 14.8917 18.3833 13.675 18.45C12.4583 18.5 11.2583 18.5417 10.075 18.575C8.90833 18.5917 7.79167 18.6 6.725 18.6C5.125 18.6 3.975 18.175 3.275 17.325C2.59167 16.4583 2.25 15.0833 2.25 13.2V3.25C2.25 3 2.3 2.83333 2.4 2.75C2.5 2.66667 2.66667 2.625 2.9 2.625H20.575C20.8083 2.625 20.975 2.66667 21.075 2.75C21.175 2.83333 21.225 3 21.225 3.25V6.175C21.225 6.425 21.175 6.59167 21.075 6.675C20.975 6.75833 20.8083 6.8 20.575 6.8H7.05V8.6H20.6C20.8333 8.6 21 8.64167 21.1 8.725C21.2 8.80833 21.25 8.975 21.25 9.225V11.9C21.25 12.15 21.2 12.3167 21.1 12.4C21 12.4833 20.8333 12.525 20.6 12.525H7.05V12.975C7.05 13.575 7.175 14.0167 7.425 14.3C7.675 14.5833 8.13333 14.7167 8.8 14.7C10.6167 14.6667 12.55 14.6 14.6 14.5C16.65 14.4 18.6583 14.2417 20.625 14.025C20.8583 13.9917 21.0167 14.025 21.1 14.125C21.1833 14.225 21.2417 14.4 21.275 14.65L21.525 17.3ZM0.675 22.075C0.675 21.825 0.725 21.6583 0.825 21.575C0.925 21.4917 1.09167 21.45 1.325 21.45H22.425C22.6583 21.45 22.825 21.4917 22.925 21.575C23.025 21.6583 23.075 21.825 23.075 22.075V25C23.075 25.25 23.025 25.4167 22.925 25.5C22.825 25.5833 22.6583 25.625 22.425 25.625H1.325C1.09167 25.625 0.925 25.5833 0.825 25.5C0.725 25.4167 0.675 25.25 0.675 25V22.075ZM34.9049 6H36.8049V3.25C36.8049 3 36.8549 2.83333 36.9549 2.75C37.0549 2.66667 37.2216 2.625 37.4549 2.625H40.5799C40.8132 2.625 40.9799 2.66667 41.0799 2.75C41.1799 2.83333 41.2299 3 41.2299 3.25V18.5C41.2299 18.75 41.1799 18.9167 41.0799 19C40.9799 19.0833 40.8132 19.125 40.5799 19.125H37.4549C37.2216 19.125 37.0549 19.0833 36.9549 19C36.8549 18.9167 36.8049 18.75 36.8049 18.5V9.8H34.9049V10.625C34.9049 10.875 34.8549 11.0417 34.7549 11.125C34.6549 11.2083 34.4882 11.25 34.2549 11.25H29.7049C29.5215 11.25 29.4049 11.2917 29.3549 11.375C29.3049 11.4417 29.2799 11.5667 29.2799 11.75V12.6C29.2799 12.8833 29.3465 13.0667 29.4799 13.15C29.6299 13.2167 29.8632 13.25 30.1799 13.25C30.9965 13.25 31.7465 13.2167 32.4299 13.15C33.1132 13.0667 33.8715 12.9583 34.7049 12.825C34.9382 12.7917 35.0965 12.825 35.1799 12.925C35.2632 13.0083 35.3215 13.175 35.3549 13.425L35.5549 15.775C35.5882 16.025 35.5466 16.2 35.4299 16.3C35.3132 16.3833 35.1382 16.4417 34.9049 16.475C34.0049 16.5917 33.0965 16.6917 32.1799 16.775C31.2632 16.8417 30.2715 16.875 29.2049 16.875C28.4049 16.875 27.7215 16.8083 27.1549 16.675C26.6049 16.5417 26.1465 16.3167 25.7799 16C25.4132 15.6833 25.1465 15.2583 24.9799 14.725C24.8132 14.1917 24.7299 13.5333 24.7299 12.75V8.575C24.7299 8.325 24.7799 8.15833 24.8799 8.075C24.9799 7.99167 25.1465 7.95 25.3799 7.95H29.9049C30.0882 7.95 30.2049 7.925 30.2549 7.875C30.3215 7.80833 30.3549 7.7 30.3549 7.55V6.575C30.3549 6.40833 30.3299 6.3 30.2799 6.25C30.2299 6.2 30.1215 6.175 29.9549 6.175H25.3799C25.1465 6.175 24.9799 6.13333 24.8799 6.05C24.7799 5.96667 24.7299 5.8 24.7299 5.55V3.25C24.7299 3 24.7799 2.83333 24.8799 2.75C24.9799 2.66667 25.1465 2.625 25.3799 2.625H32.4799C33.3799 2.625 34.0049 2.84167 34.3549 3.275C34.7215 3.70833 34.9049 4.38333 34.9049 5.3V6ZM46.9549 25C46.9882 25.25 46.9466 25.4083 46.8299 25.475C46.7132 25.5417 46.5382 25.5917 46.3049 25.625C45.1549 25.7417 43.9049 25.8417 42.5549 25.925C41.2049 26.025 39.8465 26.1083 38.4799 26.175C37.1132 26.2417 35.7716 26.2917 34.4549 26.325C33.1549 26.3583 31.9715 26.375 30.9049 26.375C29.3049 26.375 28.1549 25.9417 27.4549 25.075C26.7715 24.225 26.4299 22.8583 26.4299 20.975V18.725C26.4299 18.475 26.4799 18.3083 26.5799 18.225C26.6799 18.1417 26.8465 18.1 27.0799 18.1H30.5799C30.8132 18.1 30.9799 18.1417 31.0799 18.225C31.1799 18.3083 31.2299 18.475 31.2299 18.725V20.5C31.2299 21.1 31.3549 21.5417 31.6049 21.825C31.8549 22.1083 32.3132 22.2417 32.9799 22.225C33.8799 22.2083 34.8799 22.175 35.9799 22.125C37.0966 22.0917 38.2382 22.05 39.4049 22C40.5716 21.9333 41.7216 21.8583 42.8549 21.775C44.0049 21.675 45.0716 21.575 46.0549 21.475C46.2882 21.4417 46.4466 21.475 46.5299 21.575C46.6132 21.675 46.6716 21.85 46.7049 22.1L46.9549 25ZM42.8549 19.125C42.6216 19.125 42.4549 19.0833 42.3549 19C42.2549 18.9167 42.2049 18.75 42.2049 18.5V3.25C42.2049 3 42.2549 2.83333 42.3549 2.75C42.4549 2.66667 42.6216 2.625 42.8549 2.625H45.9799C46.2132 2.625 46.3799 2.66667 46.4799 2.75C46.5799 2.83333 46.6299 3 46.6299 3.25V18.5C46.6299 18.75 46.5799 18.9167 46.4799 19C46.3799 19.0833 46.2132 19.125 45.9799 19.125H42.8549ZM49.4299 22.075C49.4299 21.825 49.4799 21.6583 49.5799 21.575C49.6799 21.4917 49.8465 21.45 50.0799 21.45H71.1799C71.4132 21.45 71.5799 21.4917 71.6799 21.575C71.7799 21.6583 71.8299 21.825 71.8299 22.075V25C71.8299 25.25 71.7799 25.4167 71.6799 25.5C71.5799 25.5833 71.4132 25.625 71.1799 25.625H50.0799C49.8465 25.625 49.6799 25.5833 49.5799 25.5C49.4799 25.4167 49.4299 25.25 49.4299 25V22.075ZM70.2799 16.8C70.3132 17.05 70.2716 17.2083 70.1549 17.275C70.0382 17.3417 69.8632 17.3917 69.6299 17.425C68.4799 17.5417 67.2966 17.6417 66.0799 17.725C64.8632 17.8083 63.6465 17.8833 62.4299 17.95C61.2132 18 60.0132 18.0417 58.8299 18.075C57.6632 18.0917 56.5465 18.1 55.4799 18.1C53.8799 18.1 52.7299 17.675 52.0299 16.825C51.3465 15.9583 51.0049 14.5833 51.0049 12.7V3.25C51.0049 3 51.0549 2.83333 51.1549 2.75C51.2549 2.66667 51.4215 2.625 51.6549 2.625H69.3299C69.5632 2.625 69.7299 2.66667 69.8299 2.75C69.9299 2.83333 69.9799 3 69.9799 3.25V6.175C69.9799 6.425 69.9299 6.59167 69.8299 6.675C69.7299 6.75833 69.5632 6.8 69.3299 6.8H55.8049V12.225C55.8049 12.825 55.9299 13.2667 56.1799 13.55C56.4299 13.8333 56.8882 13.9667 57.5549 13.95C59.3716 13.9167 61.3049 13.85 63.3549 13.75C65.4049 13.65 67.4132 13.4917 69.3799 13.275C69.6132 13.2417 69.7716 13.275 69.8549 13.375C69.9382 13.475 69.9966 13.65 70.0299 13.9L70.2799 16.8ZM95.6848 25.325C95.7181 25.525 95.6764 25.65 95.5598 25.7C95.4431 25.75 95.2681 25.7917 95.0348 25.825C92.7348 26.0583 90.3098 26.2083 87.7598 26.275C85.2264 26.3417 82.4514 26.375 79.4348 26.375C77.8848 26.375 76.7514 26.05 76.0348 25.4C75.3181 24.7667 74.9598 23.7333 74.9598 22.3V19.375C74.9598 19.1417 75.0098 18.9833 75.1098 18.9C75.2098 18.8167 75.3764 18.775 75.6098 18.775H91.0598V17.825H75.6098C75.3764 17.825 75.2098 17.7833 75.1098 17.7C75.0098 17.6167 74.9598 17.4583 74.9598 17.225V15.3C74.9598 15.05 75.0098 14.8833 75.1098 14.8C75.2098 14.7167 75.3764 14.675 75.6098 14.675H94.7348C94.9681 14.675 95.1348 14.7167 95.2348 14.8C95.3348 14.8833 95.3848 15.05 95.3848 15.3V21.275C95.3848 21.525 95.3348 21.6917 95.2348 21.775C95.1348 21.8583 94.9681 21.9 94.7348 21.9H79.2848V22.175C79.2848 22.5583 79.3848 22.7917 79.5848 22.875C79.7848 22.9583 80.0931 23 80.5098 23C83.3098 23 85.9014 22.9667 88.2848 22.9C90.6681 22.85 92.8431 22.7417 94.8098 22.575C95.2264 22.5583 95.4431 22.7167 95.4598 23.05L95.6848 25.325ZM73.4598 13.575C73.3431 13.5917 73.2014 13.575 73.0348 13.525C72.8848 13.4583 72.8098 13.275 72.8098 12.975V10.2C72.8098 10 72.8348 9.85 72.8848 9.75C72.9514 9.63333 73.0264 9.55 73.1098 9.5C73.1931 9.45 73.2764 9.41667 73.3598 9.4C73.4598 9.36667 73.5431 9.34167 73.6098 9.325C74.1264 9.15833 74.5514 8.925 74.8848 8.625C75.2348 8.30833 75.5098 7.95833 75.7098 7.575C75.9098 7.175 76.0514 6.75 76.1348 6.3C76.2181 5.83333 76.2598 5.35833 76.2598 4.875V3.25C76.2598 3 76.3098 2.83333 76.4098 2.75C76.5098 2.66667 76.6764 2.625 76.9098 2.625H80.3848C80.6181 2.625 80.7848 2.66667 80.8848 2.75C80.9848 2.83333 81.0348 3 81.0348 3.25V4.875C81.0348 5.35833 81.0764 5.83333 81.1598 6.3C81.2431 6.75 81.3848 7.175 81.5848 7.575C81.7848 7.95833 82.0514 8.30833 82.3848 8.625C82.7348 8.925 83.1681 9.15833 83.6848 9.325C83.7514 9.34167 83.8264 9.36667 83.9098 9.4C84.0098 9.41667 84.1014 9.45 84.1848 9.5C84.2681 9.55 84.3348 9.63333 84.3848 9.75C84.4514 9.85 84.4848 10 84.4848 10.2V12.975C84.4848 13.275 84.4014 13.4583 84.2348 13.525C84.0848 13.575 83.9514 13.5917 83.8348 13.575C83.4514 13.525 83.0264 13.4417 82.5598 13.325C82.1098 13.2083 81.6514 13.0417 81.1848 12.825C80.7348 12.6083 80.2848 12.3417 79.8348 12.025C79.4014 11.6917 79.0014 11.2917 78.6348 10.825C78.2181 11.3417 77.7848 11.7667 77.3348 12.1C76.8848 12.4333 76.4348 12.7083 75.9848 12.925C75.5348 13.125 75.0931 13.275 74.6598 13.375C74.2431 13.4583 73.8431 13.525 73.4598 13.575ZM82.6098 4.875C82.6098 4.625 82.6598 4.45833 82.7598 4.375C82.8598 4.29167 83.0264 4.25 83.2598 4.25H85.5598V3.25C85.5598 3 85.6098 2.83333 85.7098 2.75C85.8098 2.66667 85.9764 2.625 86.2098 2.625H89.3348C89.5681 2.625 89.7348 2.66667 89.8348 2.75C89.9348 2.83333 89.9848 3 89.9848 3.25V13C89.9848 13.25 89.9348 13.4167 89.8348 13.5C89.7348 13.5833 89.5681 13.625 89.3348 13.625H86.2098C85.9764 13.625 85.8098 13.5833 85.7098 13.5C85.6098 13.4167 85.5598 13.25 85.5598 13V8.05H83.2598C83.0264 8.05 82.8598 8.00833 82.7598 7.925C82.6598 7.84167 82.6098 7.675 82.6098 7.425V4.875ZM91.6098 13.625C91.3764 13.625 91.2098 13.5833 91.1098 13.5C91.0098 13.4167 90.9598 13.25 90.9598 13V3.25C90.9598 3 91.0098 2.83333 91.1098 2.75C91.2098 2.66667 91.3764 2.625 91.6098 2.625H94.7348C94.9681 2.625 95.1348 2.66667 95.2348 2.75C95.3348 2.83333 95.3848 3 95.3848 3.25V13C95.3848 13.25 95.3348 13.4167 95.2348 13.5C95.1348 13.5833 94.9681 13.625 94.7348 13.625H91.6098ZM103.535 18.75C103.535 19.35 103.66 19.7917 103.91 20.075C104.16 20.3583 104.618 20.4917 105.285 20.475C106.518 20.4417 107.718 20.4 108.885 20.35C110.068 20.2833 111.285 20.1917 112.535 20.075C112.768 20.0417 112.926 20.075 113.01 20.175C113.093 20.2583 113.151 20.425 113.185 20.675L113.435 23.575C113.468 23.825 113.426 23.9833 113.31 24.05C113.193 24.1167 113.018 24.1667 112.785 24.2C111.135 24.3333 109.526 24.4333 107.96 24.5C106.393 24.5833 104.81 24.625 103.21 24.625C101.61 24.625 100.46 24.1917 99.7598 23.325C99.0764 22.475 98.7348 21.1083 98.7348 19.225V12.025C98.7348 11.775 98.7848 11.6083 98.8848 11.525C98.9848 11.4417 99.1514 11.4 99.3848 11.4H106.96C107.193 11.4 107.36 11.3583 107.46 11.275C107.56 11.1917 107.61 11.025 107.61 10.775V8.175C107.61 7.54167 107.501 7.13333 107.285 6.95C107.068 6.76667 106.743 6.675 106.31 6.675H99.3848C99.1514 6.675 98.9848 6.63333 98.8848 6.55C98.7848 6.46667 98.7348 6.3 98.7348 6.05V3.25C98.7348 3 98.7848 2.83333 98.8848 2.75C98.9848 2.66667 99.1514 2.625 99.3848 2.625H108.91C109.543 2.625 110.085 2.7 110.535 2.85C110.985 3 111.343 3.25 111.61 3.6C111.893 3.93333 112.093 4.375 112.21 4.925C112.343 5.45833 112.41 6.11667 112.41 6.9V8.575H115.135V3.25C115.135 3 115.185 2.83333 115.285 2.75C115.385 2.66667 115.551 2.625 115.785 2.625H119.285C119.518 2.625 119.685 2.66667 119.785 2.75C119.885 2.83333 119.935 3 119.935 3.25V25.25C119.935 25.5 119.885 25.6667 119.785 25.75C119.685 25.8333 119.518 25.875 119.285 25.875H115.785C115.551 25.875 115.385 25.8333 115.285 25.75C115.185 25.6667 115.135 25.5 115.135 25.25V12.725H112.41V14.825C112.41 15.075 112.36 15.2417 112.26 15.325C112.16 15.4083 111.993 15.45 111.76 15.45H104.185C103.951 15.45 103.785 15.4917 103.685 15.575C103.585 15.6583 103.535 15.825 103.535 16.075V18.75Z" fill="#F72F08"/>
<circle cx="128" cy="23" r="3" fill="#F72F08"/>
</svg>
